<?xml version="1.0" standalone="no"?>
<!DOCTYPE svg PUBLIC "-//W3C//DTD SVG 20010904//EN"
 "http://www.w3.org/TR/2001/REC-SVG-20010904/DTD/svg10.dtd">
<svg version="1.0" xmlns="http://www.w3.org/2000/svg"
 width="512.000000pt" height="512.000000pt" viewBox="0 0 512.000000 512.000000"
 preserveAspectRatio="xMidYMid meet">

<g transform="translate(0.000000,512.000000) scale(0.100000,-0.100000)"
fill="#000000" stroke="none">
<path d="M3295 5029 c-297 -42 -576 -235 -729 -503 -23 -39 -86 -192 -141
-339 l-100 -267 -42 0 -43 0 0 55 c0 46 -4 60 -25 80 -23 24 -30 25 -142 25
-130 0 -350 -22 -457 -45 -121 -26 -197 -87 -236 -193 -53 -142 11 -302 148
-369 56 -27 61 -28 273 -33 l215 -5 -142 -175 c-188 -230 -265 -366 -313 -555
-37 -146 -41 -209 -41 -815 0 -643 2 -673 55 -787 l25 -55 0 -381 c0 -269 4
-392 12 -421 16 -55 99 -138 154 -154 29 -8 147 -12 396 -12 412 0 420 1 491
80 59 66 67 100 67 289 0 154 1 161 20 161 11 0 93 -7 182 -15 310 -28 586
-35 1351 -35 l767 0 0 79 0 79 -897 5 c-923 5 -1042 9 -1416 52 -402 47 -684
98 -772 141 -77 38 -183 141 -218 214 -56 116 -57 132 -57 672 0 353 3 498 11
498 6 0 88 -13 182 -30 354 -61 687 -95 1049 -106 l216 -7 32 32 c31 30 32 34
25 87 -24 195 -119 387 -269 543 -90 93 -169 149 -288 206 -147 70 -229 86
-466 94 l-203 6 196 240 197 240 136 21 c245 38 245 38 233 15 -31 -57 -2
-101 84 -131 162 -55 273 -195 301 -380 9 -55 42 -90 84 -90 42 0 75 35 84 90
19 127 80 238 169 309 43 35 136 81 163 81 25 0 64 47 64 77 0 43 -24 69 -82
88 -29 9 -64 24 -78 33 -24 17 -23 17 70 24 52 4 400 10 773 14 l677 7 0 78 0
79 -505 0 c-277 0 -618 -5 -757 -12 -139 -6 -296 -12 -348 -12 l-94 -1 -19 50
c-10 27 -24 78 -32 114 -15 73 -39 101 -87 101 -40 0 -73 -36 -82 -90 -10 -66
-47 -168 -71 -194 -17 -18 -39 -24 -140 -34 -66 -7 -196 -24 -290 -37 -93 -14
-170 -25 -171 -25 -5 0 225 600 246 640 88 175 259 328 450 403 143 56 158 57
1066 57 l834 0 0 80 0 80 -842 -1 c-464 -1 -870 -5 -903 -10z m-1215 -1164 c0
-46 4 -60 25 -80 21 -22 33 -25 90 -25 48 0 65 -4 65 -14 0 -7 -24 -43 -52
-79 l-53 -66 -265 0 c-247 -1 -267 0 -298 19 -89 55 -94 179 -9 235 42 27 264
61 425 64 l72 1 0 -55z m1153 -100 c16 -25 58 -72 94 -105 l66 -60 -69 -64
c-38 -35 -80 -82 -94 -105 -14 -22 -27 -41 -30 -41 -3 0 -18 20 -33 45 -16 25
-58 72 -94 105 l-66 60 66 60 c36 33 78 80 94 105 15 25 30 45 33 45 3 0 18
-20 33 -45z m-795 -834 c144 -42 291 -132 385 -235 85 -92 170 -245 192 -343
l7 -33 -44 0 c-160 1 -602 37 -788 64 l-85 13 42 12 c60 17 123 68 152 125 95
184 -81 401 -279 343 -136 -40 -209 -174 -168 -311 12 -40 79 -118 123 -142
20 -12 -58 -1 -220 28 l-70 13 4 50 c6 92 49 238 102 343 l51 104 261 -5 c232
-3 271 -7 335 -26z m-303 -236 c50 -49 15 -135 -55 -135 -41 0 -80 39 -80 80
0 41 39 80 80 80 19 0 40 -9 55 -25z m-233 -1930 c81 -38 184 -61 453 -100 99
-15 186 -29 193 -31 9 -2 12 -46 12 -174 0 -168 0 -171 -25 -195 l-24 -25
-351 0 -351 0 -24 25 -25 24 0 282 0 281 35 -26 c19 -15 68 -42 107 -61z"/>
<path d="M2495 2706 c-101 -44 -125 -178 -46 -257 65 -65 157 -65 222 0 124
124 -15 327 -176 257z"/>
<path d="M2113 4865 c-12 -8 -31 -43 -43 -79 -33 -100 -80 -146 -150 -146 -41
0 -80 -39 -80 -80 0 -41 39 -80 80 -80 70 0 117 -46 150 -146 23 -68 48 -94
90 -94 42 0 67 26 90 94 33 100 80 146 150 146 41 0 80 39 80 80 0 41 -39 80
-80 80 -70 0 -118 46 -150 143 -23 71 -47 97 -90 97 -14 0 -35 -7 -47 -15z
m67 -291 c11 -12 10 -18 -3 -32 -16 -15 -18 -15 -34 0 -13 14 -14 20 -3 32 7
9 16 16 20 16 4 0 13 -7 20 -16z"/>
<path d="M3605 2951 c-90 -22 -173 -90 -215 -176 -29 -60 -39 -217 -20 -308
38 -186 196 -342 379 -377 33 -6 293 -10 672 -10 l619 0 0 80 0 80 -80 0 -80
0 0 120 0 120 80 0 80 0 0 80 0 80 -80 0 -80 0 0 80 0 80 80 0 80 0 0 80 0 80
-702 -1 c-387 -1 -716 -4 -733 -8z m155 -231 l0 -80 -120 0 c-130 0 -131 0
-109 57 25 67 83 102 172 103 l57 0 0 -80z m320 0 l0 -80 -80 0 -80 0 0 80 0
80 80 0 80 0 0 -80z m320 0 l0 -80 -80 0 -80 0 0 80 0 80 80 0 80 0 0 -80z
m320 0 l0 -80 -80 0 -80 0 0 80 0 80 80 0 80 0 0 -80z m-960 -355 l0 -115 -25
10 c-93 35 -160 102 -195 195 l-10 25 115 0 115 0 0 -115z m320 -5 l0 -120
-80 0 -80 0 0 120 0 120 80 0 80 0 0 -120z m320 0 l0 -120 -80 0 -80 0 0 120
0 120 80 0 80 0 0 -120z m320 0 l0 -120 -80 0 -80 0 0 120 0 120 80 0 80 0 0
-120z"/>
<path d="M505 2695 l-25 -24 -1 -238 0 -238 -139 -110 c-148 -117 -199 -173
-233 -257 -22 -53 -22 -57 -22 -783 l0 -730 23 -45 c35 -72 75 -114 144 -151
l63 -34 405 0 405 0 51 27 c76 40 107 70 145 140 l34 63 0 730 c0 726 0 730
-22 783 -34 85 -85 140 -233 257 l-139 110 -1 238 0 238 -25 24 c-24 25 -26
25 -215 25 -189 0 -191 0 -215 -25z m295 -295 l0 -160 -80 0 -80 0 0 160 0
160 80 0 80 0 0 -160z m192 -431 c129 -104 188 -165 188 -196 0 -10 -95 -13
-460 -13 -336 0 -460 3 -460 11 0 32 56 92 184 194 l141 114 134 1 133 0 140
-111z m208 -889 l0 -520 -480 0 -480 0 0 520 0 520 480 0 480 0 0 -520z m-4
-712 c-7 -39 -31 -74 -70 -102 -27 -20 -39 -21 -406 -21 -367 0 -379 1 -406
21 -39 28 -63 63 -70 102 l-6 32 482 0 483 0 -7 -32z"/>
<path d="M880 1360 l0 -80 80 0 80 0 0 80 0 80 -80 0 -80 0 0 -80z"/>
<path d="M673 1345 c-12 -8 -31 -43 -43 -79 -33 -100 -80 -146 -150 -146 -41
0 -80 -39 -80 -80 0 -41 39 -80 80 -80 70 0 117 -46 150 -146 23 -68 48 -94
90 -94 42 0 67 26 90 94 33 100 80 146 150 146 41 0 80 39 80 80 0 41 -39 80
-80 80 -70 0 -118 46 -150 143 -23 71 -47 97 -90 97 -14 0 -35 -7 -47 -15z
m67 -291 c11 -12 10 -18 -3 -32 -16 -15 -18 -15 -34 0 -13 14 -14 20 -3 32 7
9 16 16 20 16 4 0 13 -7 20 -16z"/>
<path d="M1865 1735 l-25 -24 0 -234 c0 -271 7 -304 76 -373 30 -31 58 -47 96
-58 36 -10 255 -27 671 -51 570 -34 620 -35 642 -21 45 29 42 51 -40 339 -43
150 -82 287 -87 305 -5 18 -19 39 -31 47 -17 10 -173 24 -632 55 -335 22 -618
40 -628 40 -10 0 -29 -11 -42 -25z m707 -178 c262 -18 480 -35 484 -39 9 -10
115 -381 109 -386 -2 -3 -244 10 -537 27 -293 17 -541 31 -551 31 -10 0 -32
13 -48 29 l-29 29 0 171 0 171 48 0 c26 -1 262 -15 524 -33z"/>
<path d="M3463 1654 c-25 -25 -26 -29 -19 -110 13 -174 81 -319 211 -449 91
-91 174 -143 290 -183 l80 -27 508 -3 507 -3 0 80 0 81 -468 0 c-436 0 -474 1
-547 20 -100 26 -188 75 -259 146 -66 66 -100 120 -133 211 -42 116 -127 103
692 103 l715 0 0 80 0 80 -775 0 -776 0 -26 -26z"/>
</g>
</svg>
